<svg viewBox="0 0 25 24" fill="none" xmlns="http://www.w3.org/2000/svg">
<path d="M12.5015 22C14.7203 21.9997 16.8759 21.2614 18.6291 19.9015C20.3823 18.5416 21.6334 16.6372 22.1855 14.4882C22.7376 12.3392 22.5593 10.0676 21.6786 8.03105C20.798 5.9945 19.2651 4.30867 17.3212 3.23895C15.3773 2.16923 13.1328 1.77639 10.9412 2.12226C8.74949 2.46814 6.73509 3.53309 5.2151 5.14946C3.6951 6.76583 2.75584 8.84181 2.54518 11.0506C2.4102 12.4659 2.5793 13.8843 3.03054 15.2139C3.51317 16.636 3.77596 18.1766 3.30107 19.6013L2.81772 21.0513C2.68743 21.4422 3.0593 21.8141 3.45018 21.6838L4.89707 21.2015C6.32356 20.726 7.86607 20.9904 9.29012 21.4731C10.3194 21.822 11.404 22.0017 12.5015 22Z" fill="white"/>
</svg>
