<svg width="24" height="24" viewBox="0 0 24 24" fill="none" xmlns="http://www.w3.org/2000/svg">
<path d="M6 15C5.44772 15 5 15.4477 5 16C5 16.5523 5.44772 17 6 17H10C10.5523 17 11 16.5523 11 16C11 15.4477 10.5523 15 10 15L6 15Z" fill="#3C414B"/>
<path d="M12.5 15C11.9477 15 11.5 15.4477 11.5 16C11.5 16.5523 11.9477 17 12.5 17H14C14.5523 17 15 16.5523 15 16C15 15.4477 14.5523 15 14 15H12.5Z" fill="#3C414B"/>
<path fill-rule="evenodd" clip-rule="evenodd" d="M6 3C3.23858 3 1 5.23858 1 8L1 16C1 18.7614 3.23858 21 6 21L18 21C20.7614 21 23 18.7614 23 16L23 8C23 5.23858 20.7614 3 18 3L6 3ZM21 9V8C21 6.34315 19.6569 5 18 5L6 5C4.34315 5 3 6.34315 3 8V9L21 9ZM3 11L21 11L21 16C21 17.6569 19.6569 19 18 19L6 19C4.34315 19 3 17.6569 3 16L3 11Z" fill="#3C414B"/>
</svg>
