<svg width="24" height="24" viewBox="0 0 24 24" fill="none" xmlns="http://www.w3.org/2000/svg">
<path fill-rule="evenodd" clip-rule="evenodd" d="M4.31664 4.31664C4.73883 3.89445 5.42333 3.89445 5.84552 4.31664L12 10.4711L18.1545 4.31664C18.5767 3.89445 19.2612 3.89445 19.6834 4.31664C20.1055 4.73883 20.1055 5.42333 19.6834 5.84552L13.5289 12L19.6834 18.1545C20.1055 18.5767 20.1055 19.2612 19.6834 19.6834C19.2612 20.1055 18.5767 20.1055 18.1545 19.6834L12 13.5289L5.84552 19.6834C5.42333 20.1055 4.73883 20.1055 4.31664 19.6834C3.89445 19.2612 3.89445 18.5767 4.31664 18.1545L10.4711 12L4.31664 5.84552C3.89445 5.42333 3.89445 4.73883 4.31664 4.31664Z" fill="#3C414B"/>
</svg>
