<svg width="24" height="24" viewBox="0 0 24 24" fill="none" xmlns="http://www.w3.org/2000/svg">
<path fill-rule="evenodd" clip-rule="evenodd" d="M11.625 3.125C12.1773 3.125 12.625 3.57272 12.625 4.125V10.625H19.125C19.6773 10.625 20.125 11.0727 20.125 11.625C20.125 12.1773 19.6773 12.625 19.125 12.625H12.625V19.125C12.625 19.6773 12.1773 20.125 11.625 20.125C11.0727 20.125 10.625 19.6773 10.625 19.125V12.625H4.125C3.57272 12.625 3.125 12.1773 3.125 11.625C3.125 11.0727 3.57272 10.625 4.125 10.625H10.625V4.125C10.625 3.57272 11.0727 3.125 11.625 3.125Z" fill="#F40054"/>
</svg>
