<svg width="16" height="16" viewBox="0 0 16 16" fill="none" xmlns="http://www.w3.org/2000/svg">
<path d="M13.7247 7.555L2.7247 2.055C2.63848 2.01189 2.54164 1.99461 2.44584 2.00526C2.35003 2.0159 2.25935 2.05401 2.1847 2.115C2.11341 2.17475 2.0602 2.2532 2.03105 2.34153C2.0019 2.42985 1.99797 2.52456 2.0197 2.615L3.3447 7.5H8.9997V8.5H3.3447L1.9997 13.37C1.97931 13.4455 1.97693 13.5248 1.99275 13.6014C2.00857 13.678 2.04214 13.7499 2.09078 13.8111C2.13941 13.8724 2.20174 13.9214 2.27276 13.9542C2.34379 13.987 2.42151 14.0027 2.4997 14C2.57797 13.9995 2.65504 13.9807 2.7247 13.945L13.7247 8.445C13.8066 8.40304 13.8753 8.3393 13.9233 8.26078C13.9713 8.18226 13.9967 8.09203 13.9967 8C13.9967 7.90798 13.9713 7.81774 13.9233 7.73923C13.8753 7.66071 13.8066 7.59696 13.7247 7.555Z" fill="white"/>
</svg>
