<svg width="24" height="24" viewBox="0 0 24 24" fill="none" xmlns="http://www.w3.org/2000/svg">
<path fill-rule="evenodd" clip-rule="evenodd" d="M11.5995 1.5737C11.8575 1.47543 12.1425 1.47543 12.4005 1.5737L20.2755 4.5737C20.7117 4.73988 21 5.15819 21 5.625L21 13.125C21 17.1926 17.4555 20.8734 12.3308 22.4503C12.1153 22.5166 11.8847 22.5166 11.6692 22.4503C6.57832 20.8838 3 17.5928 3 13.125L3 5.625C3 5.15819 3.28828 4.73988 3.72451 4.5737L11.5995 1.5737ZM5.25 6.4003L5.25 13.125C5.25 16.0844 7.55676 18.7359 11.999 20.1943C16.4111 18.7292 18.75 15.7429 18.75 13.125V6.4003L12 3.82887L5.25 6.4003Z" fill="#3C414B"/>
</svg>
