<svg width="123" height="32" viewBox="0 0 123 32" fill="none" xmlns="http://www.w3.org/2000/svg">
<path d="M95.0278 0V5.47008H97.7507V0H95.0278Z" fill="#F40054"/>
<path fill-rule="evenodd" clip-rule="evenodd" d="M0 21.0598C0 15.0177 4.87626 10.1196 10.8914 10.1196C14.2956 10.1196 17.3351 11.6884 19.3323 14.1455V10.1196H22.0552V32H19.3323V27.9741C17.3351 30.4312 14.2956 32 10.8914 32C4.87626 32 0 27.1019 0 21.0598ZM10.8914 12.8547C6.38006 12.8547 2.72286 16.5282 2.72286 21.0598C2.72286 25.5914 6.38006 29.2649 10.8914 29.2649C15.4028 29.2649 19.06 25.5914 19.06 21.0598C19.06 16.5282 15.4028 12.8547 10.8914 12.8547Z" fill="#F40054"/>
<path fill-rule="evenodd" clip-rule="evenodd" d="M46.2886 21.0598C46.2886 15.0177 41.4124 10.1196 35.3972 10.1196C31.993 10.1196 28.9535 11.6884 26.9563 14.1455V0H24.2335L24.2335 32H26.9563V27.9741C28.9535 30.4312 31.993 32 35.3972 32C41.4124 32 46.2886 27.1019 46.2886 21.0598ZM35.3972 12.8547C39.9086 12.8547 43.5658 16.5282 43.5658 21.0598C43.5658 25.5914 39.9086 29.2649 35.3972 29.2649C30.8858 29.2649 27.2286 25.5914 27.2286 21.0598C27.2286 16.5282 30.8858 12.8547 35.3972 12.8547Z" fill="#F40054"/>
<path fill-rule="evenodd" clip-rule="evenodd" d="M80.8689 10.1196C74.8538 10.1196 69.9775 15.0177 69.9775 21.0598C69.9775 27.1019 74.8538 32 80.8689 32C84.2732 32 87.3126 30.4312 89.3098 27.9741V32H92.0327V0H89.3098V14.1455C87.3126 11.6884 84.2732 10.1196 80.8689 10.1196ZM72.7004 21.0598C72.7004 16.5282 76.3576 12.8547 80.8689 12.8547C85.3803 12.8547 89.0375 16.5282 89.0375 21.0598C89.0375 25.5914 85.3803 29.2649 80.8689 29.2649C76.3576 29.2649 72.7004 25.5914 72.7004 21.0598Z" fill="#F40054"/>
<path d="M111.365 12.8547C106.854 12.8547 103.196 16.5282 103.196 21.0598V32H100.474V10.1196H103.196V13.8234C105.192 11.5521 108.112 10.1196 111.365 10.1196C117.38 10.1196 122.256 15.0177 122.256 21.0598V31.8632H119.534V21.0598C119.534 16.5282 115.876 12.8547 111.365 12.8547Z" fill="#F40054"/>
<path d="M57.1047 13.0363C58.9527 12.6391 60.8807 12.8979 62.5601 13.7685C64.2394 14.6391 65.5663 16.0677 66.3147 17.8108L68.815 16.7278C67.8172 14.4036 66.048 12.4989 63.8088 11.338C61.5697 10.1772 58.9991 9.83223 56.535 10.3618C54.071 10.8913 51.866 12.2627 50.2958 14.2422C48.7255 16.2217 47.8871 18.6869 47.9235 21.2177C47.9598 23.7485 48.8687 26.1883 50.4952 28.1215C52.1216 30.0547 54.3651 31.3615 56.8433 31.8194C59.3215 32.2774 61.8811 31.858 64.086 30.6328C66.2909 29.4075 68.0047 27.4523 68.9352 25.1002L66.4049 24.0901C65.7069 25.8542 64.4216 27.3206 62.768 28.2395C61.1143 29.1584 59.1946 29.473 57.3359 29.1295C55.4773 28.7861 53.7947 27.806 52.5748 26.3561C51.355 24.9062 50.6733 23.0763 50.646 21.1782C50.6188 19.2801 51.2476 17.4312 52.4253 15.9466C53.603 14.462 55.2567 13.4335 57.1047 13.0363Z" fill="#F40054"/>
<path d="M97.7507 10.1196H95.0278V32H97.7507V10.1196Z" fill="#F40054"/>
</svg>
