<svg width="44" height="44" viewBox="0 0 44 44" fill="none" xmlns="http://www.w3.org/2000/svg">
<rect x="0.5" y="0.5" width="43" height="43" rx="21.5" fill="white"/>
<path fill-rule="evenodd" clip-rule="evenodd" d="M11.7793 21.8268C11.7793 16.2778 16.2987 11.7795 21.8736 11.7795C25.0286 11.7795 27.8456 13.2203 29.6967 15.4768V11.7795H32.2202V31.874H29.6967V28.1767C27.8456 30.4333 25.0286 31.874 21.8736 31.874C16.2987 31.874 11.7793 27.3757 11.7793 21.8268ZM21.8736 14.2914C17.6924 14.2914 14.3029 17.6651 14.3029 21.8268C14.3029 25.9885 17.6924 29.3622 21.8736 29.3622C26.0548 29.3622 29.4443 25.9885 29.4443 21.8268C29.4443 17.6651 26.0548 14.2914 21.8736 14.2914Z" fill="#F40054"/>
<rect x="0.5" y="0.5" width="43" height="43" rx="21.5" stroke="#D2D2D2"/>
</svg>
